PathFileType	4	(X/Y/Z)	max-elbow-flex-wide_P0_1-783_filt_butterworth_LSTM.trc
DataRate	CameraRate	NumFrames	NumMarkers	Units	OrigDataRate	OrigDataStartFrame	OrigNumFrames
60	60	60	3	m	60	685	782
Frame#	Time	r_acromion			r_humerus_epicondyle			r_radius_styloid		
X1	Y1	Z1	X2	Y2	Z2	X3	Y3	Z3
685	11.4167	0.018900000000000028	0.8228	0.17220000000000024	0.24850000000000005	0.6894	0.2512000000000002	0.2016	0.8963999999999999	0.18710000000000016
686	11.4333	0.018600000000000005	0.8225	0.17200000000000004	0.24870000000000003	0.6892	0.25090000000000023	0.19930000000000003	0.8959999999999999	0.18590000000000007
687	11.45	0.01830000000000004	0.8222	0.17180000000000006	0.2489	0.6889999999999998	0.25050000000000006	0.19689999999999996	0.8957999999999999	0.18490000000000018
688	11.4667	0.01830000000000004	0.8218999999999999	0.17180000000000006	0.249	0.6887999999999999	0.2502000000000001	0.19440000000000002	0.8955	0.18420000000000025
689	11.4833	0.018400000000000027	0.8216999999999999	0.17180000000000006	0.24919999999999998	0.6885999999999999	0.2500000000000001	0.19210000000000005	0.8952	0.1835000000000001
690	11.5	0.018699999999999994	0.8214999999999999	0.17190000000000005	0.24929999999999997	0.6884999999999999	0.24990000000000012	0.1904	0.8946999999999998	0.18300000000000016
691	11.5167	0.019100000000000006	0.8213999999999999	0.17200000000000004	0.24950000000000006	0.6883999999999999	0.24980000000000013	0.18930000000000002	0.8940999999999999	0.1826000000000002
692	11.5333	0.019500000000000017	0.8213999999999999	0.17200000000000004	0.24970000000000003	0.6883999999999999	0.24970000000000014	0.18869999999999998	0.8936	0.18240000000000023
693	11.55	0.019699999999999995	0.8212999999999999	0.17210000000000025	0.25	0.6882999999999999	0.24970000000000014	0.18820000000000003	0.8931	0.18210000000000004
694	11.5667	0.019699999999999995	0.8212999999999999	0.17210000000000025	0.2502	0.6883999999999999	0.24970000000000014	0.18779999999999997	0.8929	0.18200000000000005
695	11.5833	0.01940000000000003	0.8212999999999999	0.17210000000000025	0.25040000000000007	0.6883999999999999	0.24990000000000012	0.18730000000000002	0.8927	0.18200000000000005
696	11.6	0.019100000000000006	0.8211999999999999	0.17200000000000004	0.25040000000000007	0.6884999999999999	0.2501000000000001	0.18669999999999998	0.8927	0.18210000000000004
697	11.6167	0.018699999999999994	0.8211999999999999	0.17190000000000005	0.25029999999999997	0.6884999999999999	0.2502000000000001	0.18600000000000005	0.8925999999999998	0.18230000000000024
698	11.6333	0.018500000000000016	0.8210999999999999	0.17180000000000006	0.2502	0.6885999999999999	0.2503000000000001	0.1855	0.8924999999999998	0.18250000000000022
699	11.65	0.01830000000000004	0.8209	0.17170000000000007	0.2499	0.6884999999999999	0.25040000000000007	0.18520000000000003	0.8924999999999998	0.1826000000000002
700	11.6667	0.01830000000000004	0.8207	0.17170000000000007	0.24970000000000003	0.6884999999999999	0.2503000000000001	0.18520000000000003	0.8923999999999999	0.18240000000000023
701	11.6833	0.018500000000000016	0.8205	0.17170000000000007	0.24960000000000004	0.6883999999999999	0.2501000000000001	0.1854	0.8924999999999998	0.18220000000000025
702	11.7	0.018900000000000028	0.8204	0.17190000000000005	0.24970000000000003	0.6881999999999999	0.24980000000000013	0.18569999999999998	0.8928	0.18180000000000007
703	11.7167	0.01940000000000003	0.8204	0.17230000000000023	0.24980000000000002	0.6880999999999999	0.2493000000000002	0.18610000000000004	0.8931	0.1815000000000001
704	11.7333	0.01990000000000003	0.8203	0.1727000000000002	0.25	0.6879	0.24870000000000025	0.1864	0.8934	0.18120000000000014
705	11.75	0.020199999999999996	0.8203	0.17320000000000013	0.25	0.6877	0.2482000000000001	0.18669999999999998	0.8936999999999999	0.18110000000000015
706	11.7667	0.02030000000000004	0.8202	0.1735000000000001	0.2499	0.6876	0.24790000000000012	0.18700000000000006	0.8938999999999999	0.18110000000000015
707	11.7833	0.02030000000000004	0.8202	0.1734000000000001	0.24980000000000002	0.6874	0.24770000000000014	0.1874	0.8940999999999999	0.18110000000000015
708	11.8	0.020100000000000007	0.8200999999999998	0.17320000000000013	0.24960000000000004	0.6873	0.24780000000000013	0.18810000000000004	0.8939999999999999	0.18120000000000014
709	11.8167	0.019699999999999995	0.8199999999999998	0.17290000000000016	0.24940000000000007	0.6872	0.2480000000000001	0.18900000000000006	0.8938999999999999	0.18130000000000013
710	11.8333	0.01930000000000004	0.8199999999999998	0.17280000000000018	0.24919999999999998	0.6871	0.2482000000000001	0.1906	0.8936	0.18130000000000013
711	11.85	0.018600000000000005	0.8199999999999998	0.1727000000000002	0.24919999999999998	0.6871	0.2481000000000001	0.19269999999999998	0.8935	0.18130000000000013
712	11.8667	0.017900000000000027	0.8199999999999998	0.17290000000000016	0.24929999999999997	0.6871	0.24790000000000012	0.19520000000000004	0.8936	0.18130000000000013
713	11.8833	0.017300000000000038	0.8199999999999998	0.17310000000000014	0.24950000000000006	0.6871	0.24760000000000015	0.1976	0.8937999999999999	0.18110000000000015
714	11.9	0.017000000000000015	0.8198999999999999	0.1734000000000001	0.24960000000000004	0.6869999999999998	0.2472000000000002	0.1997	0.8940999999999999	0.18090000000000017
715	11.9167	0.017000000000000015	0.8197999999999999	0.17370000000000008	0.24960000000000004	0.6868999999999998	0.24700000000000022	0.2015	0.8944999999999999	0.1806000000000002
716	11.9333	0.017199999999999993	0.8196999999999999	0.17400000000000004	0.24940000000000007	0.6867999999999999	0.24690000000000023	0.20350000000000001	0.895	0.18040000000000023
717	11.95	0.017400000000000027	0.8197999999999999	0.17410000000000025	0.2491	0.6866999999999999	0.2471000000000002	0.20610000000000006	0.8956	0.18050000000000022
718	11.9667	0.017600000000000005	0.8199999999999998	0.17410000000000025	0.24870000000000003	0.6866999999999999	0.24740000000000018	0.20950000000000002	0.8961999999999999	0.18120000000000014
719	11.9833	0.017600000000000005	0.8205	0.17400000000000004	0.24829999999999997	0.6866999999999999	0.24770000000000014	0.2138	0.897	0.18240000000000023
720	12.0	0.017400000000000027	0.8210999999999999	0.17380000000000007	0.24780000000000002	0.6866999999999999	0.2480000000000001	0.21850000000000003	0.8979999999999999	0.18390000000000006
721	12.0167	0.016900000000000026	0.8216999999999999	0.17370000000000008	0.24750000000000005	0.6867999999999999	0.2481000000000001	0.22330000000000005	0.8992	0.1855000000000001
722	12.0333	0.016400000000000026	0.8222	0.17380000000000007	0.24719999999999998	0.6869999999999998	0.24790000000000012	0.22799999999999998	0.9006999999999998	0.18690000000000018
723	12.05	0.016000000000000014	0.8227	0.17430000000000023	0.247	0.6872	0.24760000000000015	0.2329	0.9022999999999999	0.18810000000000004
724	12.0667	0.015699999999999992	0.823	0.17530000000000012	0.2469	0.6874	0.2472000000000002	0.23819999999999997	0.9041999999999999	0.18910000000000016
725	12.0833	0.015500000000000014	0.8232999999999999	0.1766000000000002	0.24680000000000002	0.6877	0.24690000000000023	0.24419999999999997	0.9060999999999999	0.19010000000000005
726	12.1	0.015199999999999991	0.8235999999999999	0.17800000000000005	0.2469	0.6881999999999999	0.24690000000000023	0.2509	0.9079999999999999	0.19110000000000016
727	12.1167	0.014900000000000024	0.8236999999999999	0.17940000000000011	0.24740000000000006	0.6887999999999999	0.24700000000000022	0.25780000000000003	0.9097999999999999	0.19210000000000005
728	12.1333	0.014400000000000024	0.8237999999999999	0.1806000000000002	0.2481	0.6894	0.2471000000000002	0.265	0.9115	0.19320000000000015
729	12.15	0.013800000000000034	0.8237999999999999	0.18190000000000006	0.249	0.6899	0.2473000000000002	0.27249999999999996	0.9127999999999998	0.19450000000000023
730	12.1667	0.013300000000000034	0.8237999999999999	0.18310000000000015	0.24970000000000003	0.6903999999999999	0.24750000000000016	0.2802	0.9137	0.19630000000000025
731	12.1833	0.01319999999999999	0.8237999999999999	0.18440000000000023	0.25	0.6906999999999999	0.24770000000000014	0.28759999999999997	0.9141999999999999	0.19850000000000023
732	12.2	0.013400000000000023	0.8237999999999999	0.1857000000000001	0.25	0.6911	0.24780000000000013	0.2942	0.9142999999999999	0.20100000000000018
733	12.2167	0.013900000000000023	0.8237999999999999	0.18690000000000018	0.2499	0.6916	0.24790000000000012	0.3002	0.9140999999999999	0.20360000000000011
734	12.2333	0.014300000000000035	0.8237999999999999	0.18810000000000004	0.24980000000000002	0.6920999999999999	0.24780000000000013	0.3064	0.9134	0.20610000000000006
735	12.25	0.014500000000000013	0.8235999999999999	0.18940000000000012	0.2499	0.6926999999999999	0.24770000000000014	0.3133	0.9123999999999999	0.20850000000000024
736	12.2667	0.014400000000000024	0.8230999999999999	0.1907000000000002	0.2502	0.6934	0.24740000000000018	0.3205	0.9114	0.21070000000000022
737	12.2833	0.01369999999999999	0.8226	0.19210000000000005	0.25060000000000004	0.6941999999999999	0.24700000000000022	0.3276	0.9104999999999999	0.2128000000000002
738	12.3	0.012800000000000034	0.8219999999999998	0.19320000000000015	0.251	0.6948999999999999	0.24670000000000025	0.3339	0.9098999999999999	0.21440000000000026
739	12.3167	0.011800000000000033	0.8215999999999999	0.1937000000000001	0.25129999999999997	0.6956	0.24640000000000006	0.33920000000000006	0.9094	0.2159000000000001
740	12.3333	0.010800000000000032	0.8212999999999999	0.19380000000000008	0.25140000000000007	0.6960999999999999	0.24620000000000009	0.34420000000000006	0.909	0.21750000000000014
741	12.35	0.009599999999999997	0.8211999999999999	0.19350000000000012	0.25160000000000005	0.6964999999999999	0.2461000000000001	0.3496	0.9086999999999998	0.21930000000000016
742	12.3667	0.00830000000000003	0.8211999999999999	0.19300000000000017	0.2518	0.6968999999999999	0.2461000000000001	0.3557	0.9080999999999999	0.22140000000000015
743	12.3833	0.007099999999999995	0.8211999999999999	0.1927000000000002	0.2521	0.6972	0.24620000000000009	0.36260000000000003	0.9072	0.2239000000000001
744	12.4	0.006099999999999994	0.8214999999999999	0.1927000000000002	0.2522	0.6976	0.24640000000000006	0.3698	0.9057	0.22650000000000026
